<?xml version="1.0" encoding="UTF-8" standalone="no"?>
<svg
   viewBox="0 0 24 24"
   version="1.1"
   id="svg961"
   sodipodi:docname="github-2.svg"
   inkscape:version="1.2.2 (b0a8486541, 2022-12-01)"
   xmlns:inkscape="http://www.inkscape.org/namespaces/inkscape"
   xmlns:sodipodi="http://sodipodi.sourceforge.net/DTD/sodipodi-0.dtd"
   xmlns="http://www.w3.org/2000/svg"
   xmlns:svg="http://www.w3.org/2000/svg">
  <defs
     id="defs965" />
  <sodipodi:namedview
     id="namedview963"
     pagecolor="#ffffff"
     bordercolor="#666666"
     borderopacity="1.0"
     inkscape:showpageshadow="2"
     inkscape:pageopacity="0.0"
     inkscape:pagecheckerboard="0"
     inkscape:deskcolor="#d1d1d1"
     showgrid="false"
     inkscape:zoom="27.812867"
     inkscape:cx="17.887405"
     inkscape:cy="15.208788"
     inkscape:window-width="1920"
     inkscape:window-height="1015"
     inkscape:window-x="0"
     inkscape:window-y="28"
     inkscape:window-maximized="1"
     inkscape:current-layer="svg961" />
  <path
     fill-rule="evenodd"
     clip-rule="evenodd"
     d="m 12.006745,3.9845698 c -4.5111657,0 -8.1580042,3.6737235 -8.1580042,8.2186202 0,3.632978 2.3366551,6.708219 5.5782151,7.796643 0.4052785,0.08182 0.5537303,-0.17684 0.5537303,-0.394424 0,-0.190533 -0.013359,-0.843621 -0.013359,-1.524095 -2.2693591,0.489942 -2.7419336,-0.979715 -2.7419336,-0.979715 -0.3647005,-0.952496 -0.9050718,-1.1973 -0.9050718,-1.1973 -0.7427601,-0.503467 0.054104,-0.503467 0.054104,-0.503467 0.823916,0.05444 1.2562464,0.843621 1.2562464,0.843621 0.7292341,1.251737 1.9043247,0.898058 2.3770658,0.680306 0.06746,-0.530686 0.283712,-0.898058 0.51332,-1.102117 -1.8099771,-0.190532 -3.7143018,-0.898058 -3.7143018,-4.054955 0,-0.898059 0.3239557,-1.632803 0.837275,-2.204234 -0.080989,-0.2040587 -0.3647005,-1.0478462 0.081156,-2.1771822 0,0 0.6888231,-0.2177516 2.2419732,0.8436205 A 7.8433996,7.8433996 0 0 1 12.006745,7.9577018 c 0.688823,0 1.391005,0.09535 2.039417,0.2721895 1.553317,-1.0613721 2.242141,-0.8436205 2.242141,-0.8436205 0.445856,1.129336 0.161977,1.9731235 0.08099,2.1771822 0.526845,0.571431 0.837441,1.306175 0.837441,2.204234 0,3.156897 -1.904324,3.85073 -3.727827,4.054955 0.297238,0.258497 0.55373,0.748271 0.55373,1.523928 0,1.102117 -0.01336,1.986649 -0.01336,2.258672 0,0.217751 0.148619,0.476415 0.553731,0.394758 3.24156,-1.088758 5.578215,-4.163832 5.578215,-7.79681 0.01336,-4.5448967 -3.646839,-8.2186202 -8.144478,-8.2186202 z"
     fill="#24292f"
     id="path2"
     style="fill:#000000;stroke-width:0.166987" />
</svg>
